**ABCDEFGHIJKLMNOPQRSTUVWXYZabcdefghijklmnopqrstuvwxyz**************************
**PARASOLID !"#$%&'()*+,-./:;<=>?@[\]^_`{|}~0123456789**************************
**PART1;
MC=AMD64;
MC_MODEL=Intel64 Family 6 Model 158 Stepping 10, GenuineIntel;
MC_ID=unknown;
OS=Windows_NT;
OS_RELEASE=unknown;
FRU=Parasolid Version 32.1, build 230,  5-23-2020;
APPL=SOLIDWORKS 2021-2020273;
SITE=;
USER=unknown;
FORMAT=text;
GUISE=transmit;
KEY=Cart;
FILE=Cart.x_t;
DATE=Tue May 31 19:52:02 2022;
**PART2;
SCH=SCH_3201230_32001;
USFLD_SIZE=0;
**PART3;
**END_OF_HEADER*****************************************************************
T51 : TRANSMIT FILE created by modeller version 320123023 SCH_3201230_32001_1300
6229 0 12 34 CCCCCCI4 mesh1006 0 I8 polyline1008 0 CCCCCCCDI5 owner1040 0 CCCCCC
I13 boundary_mesh1006 0 I17 boundary_polyline1008 0 CCCA16 index_map_offset0 0 1
 dA9 index_map82 0 A17 node_id_index_map82 0 A20 schema_embedding_map82 0 A5 chi
ld12 0 A14 lowest_node_id0 0 1 dA16 mesh_offset_data206 0 Z1 235 2 3 0 0 0 0 0 0
 1e3 1e-8 0 4 0 1 0 1 1 5 6 7 8 0 0 9 10 11 0 0 0 0 0 0 0 81 255 2 2 227 12 1 13
 0 0 0 0 14 70 11 CI9 list_type0 0 1 uI10 notransmit0 0 1 lCCCDCCDI12 finger_ind
ex0 0 1 dI12 finger_block1012 0 CZ3 0 4 T1 0 0 9 20 1 15 15 13 255 5 99 0 1 0 16
 0 0 17 0 50 255 6 94 0 16 18 0 0 +.025 -.0125 -.02 1 0 0 0 0 -1 31 255 7 140 0
 10 19 0 0 -0 0 0 0 0 -1 -1 0 0 .0025 29 255 8 75 0 20 21 0 .025 -.0125 0 19 8 C
CCCCCCA5 owner12 0 Z9 33 0 1 17 0 22 V0 16 255 10 137 0 ?23 0 24 7 0 0 1 18 255
 11 30 0 25 0 26 27 ?1 17 255 25 0 28 29 30 11 31 24 0 32 -18 26 27 0 33 11 34 3
5 ?1 29 27 32 0 11 35 36 .025 -.0125 -.02 29 35 29 0 26 37 27 -.025 -.0125 -.02
 29 36 78 0 38 27 39 .025 .0125 0 18 38 69 0 40 41 0 36 ?1 29 39 77 0 41 36 21 -
.025 .0125 0 18 41 68 0 42 43 38 39 ?1 29 21 76 0 43 39 8 -.025 -.0125 0 18 43 6
7 0 44 20 41 21 ?1 17 44 0 45 46 47 43 33 48 0 49 +18 20 66 0 31 50 43 8 ?1 17 3
1 0 51 52 53 20 25 24 0 30 +18 50 21 0 54 34 20 55 ?1 17 54 0 56 57 58 50 40 59
 0 60 -18 34 24 0 61 26 50 37 ?1 29 55 23 0 50 0 37 .025 .0125 -.02 29 37 26 0 3
4 55 35 -.025 .0125 -.02 17 61 0 45 47 46 34 42 62 0 63 -15 255 45 85 0 46 64 0
 17 47 0 45 44 61 26 63 65 0 66 +17 46 0 45 61 44 41 49 67 0 68 -17 42 0 56 58 5
7 41 61 62 0 46 +16 62 81 0 ?42 48 59 69 0 0 1 17 63 0 70 60 66 34 47 65 0 57 -1
5 70 4 0 32 71 0 17 60 0 70 32 63 50 57 72 0 29 -17 66 0 70 63 32 26 53 73 0 0 -
16 65 13 0 ?47 73 72 74 0 0 1 17 57 0 56 42 54 34 60 72 0 0 +15 56 87 0 58 75 0
 16 72 9 0 ?57 65 76 77 0 0 1 16 76 5 0 ?29 72 78 79 0 0 1 30 255 77 11 0 72 79
 74 0 +-.025 .0125 -.02 -1 0 0 30 79 7 0 76 80 77 0 +.025 -.0125 -.02 0 1 0 30 7
4 15 0 65 77 81 0 +-.025 -.0125 -.02 0 -1 0 30 81 19 0 73 74 82 0 +-.025 -.0125
 -.02 1 0 0 16 73 17 0 ?53 59 65 81 0 0 1 30 82 74 0 83 81 84 0 +.025 -.0125 0 0
 1 0 16 83 62 0 ?85 86 87 82 0 0 1 30 84 73 0 86 82 88 0 +-.025 .0125 0 -1 0 0 1
6 86 58 0 ?68 67 83 84 0 0 1 30 88 72 0 67 84 89 0 +-.025 -.0125 0 0 -1 0 16 67
 54 0 ?49 78 86 88 0 0 1 30 89 71 0 78 88 90 0 +-.025 -.0125 0 1 0 0 16 78 50 0
 ?91 76 67 89 0 0 1 30 90 95 0 24 89 92 0 +.025 -.0125 -.02 0 0 1 16 24 79 0 ?31
 10 48 90 0 0 1 30 92 96 0 48 90 69 0 +-.025 -.0125 -.02 0 0 1 16 48 80 0 ?44 24
 62 92 0 0 1 30 69 97 0 62 92 19 0 +-.025 .0125 -.02 0 0 1 30 19 98 0 59 69 7 0
 +.025 .0125 -.02 0 0 1 16 59 82 0 ?40 62 73 19 0 0 1 17 40 0 28 30 29 38 54 59
 0 58 +15 28 89 0 30 16 0 17 30 0 28 25 40 20 85 83 0 91 -17 29 0 28 40 25 50 32
 76 0 0 +17 58 0 56 54 42 38 68 86 0 85 -17 68 0 93 49 85 41 58 86 0 0 +17 85 0
 93 68 91 38 30 83 0 0 +15 93 49 0 85 94 0 17 91 0 93 85 49 20 52 78 0 0 +17 49
 0 93 91 68 43 46 67 0 52 +17 52 0 51 33 31 43 91 78 0 0 -15 51 83 0 52 95 0 17
 33 0 51 53 52 26 44 48 0 47 -17 53 0 51 31 33 11 66 73 0 0 +14 255 95 84 96 ?64
 16 51 5 97 +0 0 64 16 22 81 1 96 228 98 95 99 0 0 100 101 14 64 86 100 ?75 95 4
5 5 102 +0 0 75 95 22 14 16 90 103 ?95 0 28 5 6 +0 0 95 0 22 50 97 91 0 95 104 1
02 0 +-.025 -.0125 -.02 0 -1 0 0 0 -1 13 22 34 0 0 0 0 0 0 9 16 50 104 70 0 94 1
05 97 0 +0 0 0 0 0 -1 -1 0 0 50 102 92 0 64 97 18 0 +-.025 -.0125 -.02 -1 0 0 0
 0 1 50 18 93 0 75 102 6 0 +-.025 .0125 -.02 0 1 0 0 0 1 14 75 88 106 ?71 64 56
 5 18 +0 0 71 64 22 81 1 106 231 98 75 107 0 103 108 109 14 71 1 108 ?94 75 70 5
 105 +0 0 94 75 22 81 1 108 232 98 71 110 0 106 111 112 14 94 48 111 ?113 71 114
 5 104 -0 0 113 71 22 50 105 3 0 71 115 104 0 +0 0 -.02 0 0 -1 -1 0 0 51 255 115
 163 0 113 116 105 0 -0 0 .002 0 0 -1 .0025 -1 0 0 14 113 150 117 ?118 94 119 5
 115 -0 0 118 94 22 50 116 165 0 118 0 115 0 +0 0 .002 0 0 1 1 0 0 14 118 155 12
0 ?0 113 121 5 116 +0 0 0 113 22 81 1 120 235 98 118 122 0 117 0 123 15 121 157
 0 124 118 0 17 124 0 121 124 124 0 125 87 0 0 +17 125 0 119 125 125 0 124 87 0
 0 -16 87 147 0 ?124 83 0 80 0 0 1 31 80 167 0 87 0 79 0 +0 0 .002 0 0 1 1 0 0 .
0025 15 119 153 0 125 113 126 15 126 154 0 23 113 0 17 23 0 126 23 23 0 127 10 0
 0 +17 127 0 114 127 127 0 23 10 0 0 -15 114 139 0 127 94 93 80 255 1 98 128 129
 9000 1 1 1 1 1 1 1 1 0 FFFFTFTFFFFFFF1 81 1 122 208 130 118 0 120 131 0 132 81
 1 117 234 98 113 131 0 111 120 133 82 255 1 123 -1403846545 81 1 131 207 130 11
3 0 117 134 122 135 81 1 111 233 98 94 134 0 108 117 136 82 1 133 -1401880465 81
 1 134 206 130 94 0 111 110 131 137 82 1 136 658964591 80 1 130 0 138 8001 0 0 0
 0 3 5 0 0 0 FFFFTFTFFFFFFF2 81 1 110 205 130 71 0 108 107 134 139 83 255 3 137
 .650980392156863 .619607843137255 .588235294117647 81 1 107 204 130 75 0 106 14
0 110 141 83 3 139 .650980392156863 .619607843137255 .588235294117647 81 1 140 2
03 130 64 0 100 99 107 142 83 3 141 .650980392156863 .619607843137255 .588235294
117647 81 1 100 229 98 64 140 0 96 103 143 81 1 99 202 130 95 0 96 144 140 145 8
3 3 142 .650980392156863 .619607843137255 .588235294117647 81 1 144 201 130 16 0
 103 0 99 146 83 3 145 .650980392156863 .619607843137255 .588235294117647 81 1 1
03 230 98 16 144 0 100 106 147 83 3 146 .650980392156863 .619607843137255 .58823
5294117647 82 1 147 660275307 82 1 143 660013163 79 255 15 138 SDL/TYSA_COLOUR83
 3 135 .650980392156863 .619607843137255 .588235294117647 83 3 132 .650980392156
863 .619607843137255 .588235294117647 79 14 129 SWEntUnchanged82 1 112 653328491
 82 1 109 660144235 82 1 101 659882091 17 32 0 70 66 60 11 29 76 0 53 -19 17 100
 0 1 0 9 5 S0 74 4 CI16 index_map_offset0 0 1 dCCZ20 15 9 0 0 120 148 149 150 15
1 152 122 13 2 0 0 0 0 0 0 0 0 0 0 0 81 2 148 170 153 1 0 149 0 0 0 154 81 2 149
 174 155 1 148 150 0 0 0 156 81 1 150 178 157 1 149 151 0 0 158 81 2 151 188 159
 1 150 152 0 0 0 160 81 2 152 199 161 1 151 13 0 0 0 0 81 2 13 226 162 1 152 2 0
 0 163 0 80 2 162 164 165 8004 0 0 0 0 3 5 0 0 0 FFTFFFFFFFFFFF2 3 83 1 163 7858
.000032 79 16 165 SDL/TYSA_DENSITY80 2 161 166 167 9000 0 0 0 0 3 5 0 0 0 FFTFFF
FFFFFFFF9 1 79 16 167 BODY_RECIPE_200180 2 159 168 169 9000 0 0 0 0 3 5 0 0 0 FF
TFFFFFFFFFFF9 1 82 1 160 1 79 24 169 BODY_IN_LIGHTWEIGHT_PERM80 1 157 170 171 90
00 1 1 1 1 1 1 1 1 0 FFTFFFFFFFFFFF1 82 1 158 75503 79 10 171 BODY_MATCH80 2 155
 172 173 9000 0 0 0 0 3 5 0 0 0 FFTFFFFFFFFFFF9 1 82 1 156 46 79 30 173 LAST_BOD
Y_MODIFYING_FEATURE_ID80 2 153 174 175 9000 0 0 0 0 3 5 0 0 0 FFTFFFFFFFFFFF9 1
 82 1 154 107 79 19 175 ENT_TIME_STAMP_200180 2 12 176 177 9000 0 0 0 0 3 5 0 0
 0 FFTFFFFFFFFFFF9 1 82 1 14 102 79 12 177 ATOM_ID_20011 0 
