**ABCDEFGHIJKLMNOPQRSTUVWXYZabcdefghijklmnopqrstuvwxyz**************************
**PARASOLID !"#$%&'()*+,-./:;<=>?@[\]^_`{|}~0123456789**************************
**PART1;
MC=AMD64;
MC_MODEL=Intel64 Family 6 Model 158 Stepping 10, GenuineIntel;
MC_ID=unknown;
OS=Windows_NT;
OS_RELEASE=unknown;
FRU=Parasolid Version 32.1, build 230,  5-23-2020;
APPL=SOLIDWORKS 2021-2020273;
SITE=;
USER=unknown;
FORMAT=text;
GUISE=transmit;
KEY=Link_1;
FILE=Link_1.x_t;
DATE=Fri May 13 12:30:00 2022;
**PART2;
SCH=SCH_3201230_32001;
USFLD_SIZE=0;
**PART3;
**END_OF_HEADER*****************************************************************
T51 : TRANSMIT FILE created by modeller version 320123023 SCH_3201230_32001_1300
6229 0 12 34 CCCCCCI4 mesh1006 0 I8 polyline1008 0 CCCCCCCDI5 owner1040 0 CCCCCC
I13 boundary_mesh1006 0 I17 boundary_polyline1008 0 CCCA16 index_map_offset0 0 1
 dA9 index_map82 0 A17 node_id_index_map82 0 A20 schema_embedding_map82 0 A5 chi
ld12 0 A14 lowest_node_id0 0 1 dA16 mesh_offset_data206 0 Z1 274 2 3 0 0 0 0 0 0
 1e3 1e-8 0 4 0 1 0 1 1 5 6 7 8 0 0 9 10 11 0 0 0 0 0 0 0 81 255 2 2 266 12 1 13
 0 0 0 0 14 70 11 CI9 list_type0 0 1 uI10 notransmit0 0 1 lCCCDCCDI12 finger_ind
ex0 0 1 dI12 finger_block1012 0 CZ3 0 4 T1 0 0 9 20 1 15 15 13 255 5 99 0 1 0 16
 0 0 17 0 51 255 6 94 0 18 19 0 0 --.05 .001 0 0 -1 0 .005 0 0 -1 30 255 7 98 0
 10 20 0 0 +-.05 .001 .005 0 -1 0 29 255 8 75 0 21 22 0 -.05 -.001 -.005 19 8 CC
CCCCCA5 owner12 0 Z9 33 0 1 17 0 23 V0 16 255 10 82 0 ?24 0 25 7 0 0 1 18 255 11
 30 0 26 0 27 28 ?1 17 255 26 0 29 30 31 11 32 33 0 34 +18 27 27 0 31 11 35 36 ?
1 29 28 32 0 11 36 37 -.05 .001 -.005 29 36 29 0 27 38 28 .05 .001 -.005 29 37 7
8 0 39 28 40 -.05 -.001 .005 18 39 69 0 41 42 0 37 ?1 29 40 77 0 42 37 22 .05 -.
001 .005 18 42 68 0 43 44 39 40 ?1 29 22 76 0 44 40 8 .05 -.001 -.005 18 44 67 0
 45 21 42 22 ?1 17 45 0 46 47 48 44 49 50 0 51 +18 21 66 0 52 53 44 8 ?1 17 52 0
 54 34 51 21 55 56 0 57 +18 53 21 0 58 35 21 59 ?1 17 58 0 60 24 61 53 62 63 0 3
0 -18 35 24 0 62 27 53 38 ?1 29 59 23 0 53 0 38 -.05 .001 .005 29 38 26 0 35 59
 36 .05 .001 .005 17 62 0 29 31 30 35 58 63 0 61 +15 255 29 4 0 30 16 64 17 31 0
 29 26 62 27 65 66 0 47 +17 30 0 29 62 26 53 67 68 0 69 +16 63 9 0 ?62 66 68 70
 0 0 1 17 61 0 60 58 43 35 48 25 0 65 -15 60 87 0 43 71 0 17 43 0 60 61 24 42 41
 72 0 48 +17 48 0 46 45 65 42 61 25 0 49 +16 25 81 0 ?48 10 73 20 0 0 1 17 65 0
 46 48 47 35 31 66 0 0 -15 46 85 0 45 74 0 17 47 0 46 65 45 27 51 73 0 32 -16 66
 13 0 ?31 33 63 75 0 0 1 16 33 17 0 ?26 76 66 77 0 0 1 31 255 75 15 0 66 70 77 0
 +.05 .001 0 0 1 0 0 0 1 .005 30 70 11 0 63 78 75 0 +-.05 .001 .005 1 0 -1821459
64977565e-30 30 77 19 0 33 75 79 0 +-.05 .001 -.005 -1 0 182145964977565e-30 31
 79 74 0 80 77 81 0 +-.05 -.001 0 0 1 0 0 0 1 .005 16 80 62 0 ?82 72 83 79 0 0 1
 30 81 73 0 72 79 84 0 +-.05 -.001 .005 1 0 -182145964977565e-30 16 72 58 0 ?43
 50 80 81 0 0 1 31 84 72 0 50 81 85 0 +.05 -.001 0 0 1 0 0 0 1 .005 16 50 54 0 ?
45 56 72 84 0 0 1 30 85 71 0 56 84 86 0 +-.05 -.001 -.005 -1 0 182145964977565e-
30 16 56 50 0 ?52 68 50 85 0 0 1 30 86 95 0 76 85 87 0 +-.05 .001 -.005 0 -1 0 1
6 76 79 0 ?57 73 33 86 0 0 1 30 87 96 0 73 86 20 0 +.05 .001 -.005 0 -1 0 16 73
 80 0 ?51 25 76 87 0 0 1 30 20 97 0 25 87 7 0 +.05 .001 .005 0 -1 0 17 51 0 54 5
2 32 44 47 73 0 55 +15 54 83 0 52 88 0 17 32 0 54 51 34 27 26 33 0 0 -17 55 0 89
 49 90 44 52 56 0 0 -15 89 49 0 90 91 92 17 49 0 89 41 55 42 45 50 0 0 -17 90 0
 89 55 41 21 82 80 0 0 -17 41 0 89 90 49 39 43 72 0 24 -17 82 0 93 69 57 39 90 8
0 0 0 +15 93 89 0 82 18 0 17 69 0 93 67 82 53 24 10 0 0 -17 57 0 93 82 67 21 34
 76 0 90 +17 67 0 93 57 69 11 30 68 0 0 -17 34 0 54 32 52 11 57 76 0 67 -16 68 5
 0 ?30 63 56 78 0 0 1 31 78 7 0 68 94 70 0 +-.05 .001 0 0 1 0 0 0 1 .005 31 94 1
47 0 95 96 78 0 +-.05 -.001 0 0 1 0 0 0 1 .0025 16 95 125 0 ?97 83 98 94 0 0 1 3
1 96 148 0 83 99 94 0 +-.05 .001 0 0 1 0 0 0 1 .0025 16 83 128 0 ?100 80 95 96 0
 0 1 31 99 185 0 101 102 96 0 +.05 -.001 0 0 1 0 0 0 1 .0025 16 101 163 0 ?103 9
8 0 99 0 0 1 31 102 186 0 98 0 99 0 +.05 .001 0 0 1 0 0 0 1 .0025 16 98 166 0 ?1
04 95 101 102 0 0 1 17 104 0 105 104 104 0 106 98 0 0 +15 105 172 0 104 107 108
 17 106 0 64 106 106 0 104 98 0 0 -15 64 157 0 106 16 0 14 255 16 160 109 ?91 0
 110 5 111 +0 0 91 0 23 81 1 109 267 112 16 113 0 0 114 115 14 91 154 114 ?18 16
 89 5 116 -0 0 18 16 23 15 110 119 0 117 16 29 50 255 111 3 0 16 118 116 0 +-.05
 .001 0 0 1 0 0 0 1 13 23 34 0 0 0 0 0 0 9 16 51 118 144 0 119 120 111 0 --.05 .
001 0 0 -1 0 .0025 0 0 -1 50 116 70 0 91 111 121 0 +-.05 -.001 0 0 1 0 0 0 1 50
 121 91 0 88 116 122 0 +-.05 .001 -.005 182145964977565e-30 0 1 1 0 -18214596497
7565e-30 14 88 84 123 ?119 74 54 5 121 -0 0 119 74 23 51 122 92 0 74 121 19 0 -.
05 .001 0 0 -1 0 .005 0 0 -1 14 74 86 124 ?88 71 46 5 122 -0 0 88 71 23 50 19 93
 0 71 122 6 0 +-.05 .001 .005 -182145964977565e-30 0 -1 -1 0 182145964977565e-30
 14 71 88 125 ?74 18 60 5 19 -0 0 74 18 23 81 1 125 271 112 71 126 0 124 127 128
 14 18 90 127 ?71 91 93 5 6 -0 0 71 91 23 81 1 127 272 112 18 129 0 125 130 131
 80 255 1 112 132 133 9000 1 1 1 1 1 1 1 1 0 FFFFTFTFFFFFFF1 81 1 129 242 134 18
 0 127 135 126 136 81 1 130 273 112 119 137 0 127 138 139 82 255 1 131 -18107595
73 14 119 131 130 ?107 88 140 5 118 +0 0 107 88 23 81 1 137 246 134 119 0 130 14
1 142 143 81 1 138 274 112 107 142 0 130 0 144 82 1 139 -1805909909 14 107 169 1
38 ?0 119 105 5 120 +0 0 0 119 23 81 1 142 247 134 107 0 138 137 0 145 82 1 144
 -1801846677 80 1 134 0 146 8001 0 0 0 0 3 5 0 0 0 FFFFTFTFFFFFFF2 83 255 3 145
 1 .949019607843137 .909803921568627 79 255 15 146 SDL/TYSA_COLOUR51 120 182 0 1
07 0 118 0 -.05 .001 0 0 -1 0 .0025 0 0 -1 81 1 141 245 134 88 0 123 147 137 148
 83 3 143 1 .949019607843137 .909803921568627 81 1 123 269 112 88 141 0 114 124
 149 81 1 147 244 134 74 0 124 126 141 150 83 3 148 1 .949019607843137 .90980392
1568627 81 1 124 270 112 74 147 0 123 125 151 81 1 126 243 134 71 0 125 129 147
 152 83 3 150 1 .949019607843137 .909803921568627 83 3 152 1 .949019607843137 .9
09803921568627 82 1 151 -1811283861 81 1 114 268 112 91 135 0 109 123 153 82 1 1
49 -1811546005 81 1 135 241 134 91 0 114 113 129 154 82 1 153 -1798832021 81 1 1
13 240 134 16 0 109 0 135 155 83 3 154 1 .949019607843137 .909803921568627 83 3
 155 1 .949019607843137 .909803921568627 15 140 134 0 100 119 156 17 100 0 140 1
00 100 0 117 83 0 0 +15 156 135 0 157 119 0 17 157 0 156 157 157 0 97 95 0 0 -17
 97 0 92 97 97 0 157 95 0 0 +15 92 114 0 97 91 158 15 158 152 0 103 91 0 17 103
 0 158 103 103 0 159 101 0 0 +17 159 0 108 159 159 0 103 101 0 0 -15 108 173 0 1
59 107 0 17 117 0 110 117 117 0 100 83 0 0 -83 3 136 1 .949019607843137 .9098039
21568627 79 14 133 SWEntUnchanged82 1 128 -1811021717 82 1 115 -1798307733 17 24
 0 60 43 58 39 69 10 0 82 +19 17 100 0 1 0 9 5 S0 74 4 CI16 index_map_offset0 0
 1 dCCZ20 15 9 0 0 160 161 138 162 163 164 142 13 2 0 0 0 0 0 0 0 0 0 0 0 81 2 1
60 111 165 1 0 161 0 0 0 166 81 2 161 208 167 1 160 162 0 0 0 168 81 1 162 217 1
69 1 161 163 0 0 170 81 2 163 227 171 1 162 164 0 0 0 172 81 2 164 238 173 1 163
 13 0 0 0 0 81 2 13 265 174 1 164 2 0 0 175 0 80 2 174 176 177 8004 0 0 0 0 3 5
 0 0 0 FFTFFFFFFFFFFF2 3 83 1 175 77e2 79 16 177 SDL/TYSA_DENSITY80 2 173 178 17
9 9000 0 0 0 0 3 5 0 0 0 FFTFFFFFFFFFFF9 1 79 16 179 BODY_RECIPE_200180 2 171 18
0 181 9000 0 0 0 0 3 5 0 0 0 FFTFFFFFFFFFFF9 1 82 1 172 1 79 24 181 BODY_IN_LIGH
TWEIGHT_PERM80 1 169 182 183 9000 1 1 1 1 1 1 1 1 0 FFTFFFFFFFFFFF1 82 1 170 377
92 79 10 183 BODY_MATCH80 2 167 184 185 9000 0 0 0 0 3 5 0 0 0 FFTFFFFFFFFFFF9 1
 82 1 168 48 79 30 185 LAST_BODY_MODIFYING_FEATURE_ID80 2 165 186 187 9000 0 0 0
 0 3 5 0 0 0 FFTFFFFFFFFFFF9 1 82 1 166 103 79 19 187 ENT_TIME_STAMP_200180 2 12
 188 189 9000 0 0 0 0 3 5 0 0 0 FFTFFFFFFFFFFF9 1 82 1 14 101 79 12 189 ATOM_ID_
20011 0 
